<svg width="37" height="23" viewBox="0 0 37 23" version="1.1" xmlns="http://www.w3.org/2000/svg" xmlns:xlink="http://www.w3.org/1999/xlink">
<title>Behance</title>
<desc>Created using Figma</desc>
<g id="Canvas" transform="translate(-3184 734)">
<g id="Behance">
<use xlink:href="#path0_fill" transform="translate(3184 -734)" fill="#FFFFFF"/>
</g>
</g>
<defs>
<path id="path0_fill" fill-rule="evenodd" d="M 15.071 10.348C 15.8311 9.96497 16.406 9.54004 16.798 9.07703C 17.498 8.24805 17.845 7.15002 17.845 5.78796C 17.845 4.46399 17.498 3.32898 16.807 2.37903C 15.655 0.833008 13.701 0.0400391 10.9399 0L 0 0L 0 22.332L 10.201 22.332C 11.351 22.332 12.415 22.234 13.399 22.033C 14.384 21.829 15.235 21.457 15.9561 20.911C 16.598 20.4351 17.132 19.848 17.558 19.153C 18.233 18.104 18.569 16.916 18.569 15.592C 18.569 14.309 18.274 13.2159 17.688 12.3199C 17.0959 11.421 16.225 10.764 15.071 10.348ZM 4.51294 3.87805L 9.44092 3.87805C 10.5239 3.87805 11.4159 3.99402 12.1179 4.22607C 12.928 4.56201 13.3329 5.24805 13.3329 6.29102C 13.3329 7.22607 13.0249 7.8811 12.413 8.2511C 11.797 8.62 10.9979 8.80505 10.0179 8.80505L 4.51294 8.80505L 4.51294 3.87805ZM 12.303 18.063C 11.7579 18.325 10.991 18.4561 10.0089 18.4561L 4.51294 18.4561L 4.51294 12.5L 10.0869 12.5C 11.0559 12.509 11.8119 12.636 12.351 12.879C 13.313 13.314 13.7909 14.111 13.7909 15.275C 13.7909 16.6479 13.2959 17.575 12.303 18.063ZM 23.408 1.04102L 33.109 1.04102L 33.109 3.82007L 23.408 3.82007L 23.408 1.04102ZM 32.254 6.15308C 33.424 6.66809 34.387 7.48303 35.145 8.59705C 35.8359 9.5791 36.28 10.718 36.4819 12.0121C 36.601 12.7681 36.6479 13.8651 36.629 15.29L 24.432 15.29C 24.505 16.946 25.082 18.108 26.1849 18.7731C 26.8519 19.187 27.656 19.396 28.599 19.396C 29.5919 19.396 30.4039 19.1431 31.027 18.639C 31.369 18.3651 31.671 17.9871 31.929 17.5021L 36.3979 17.5021C 36.28 18.4801 35.7369 19.4761 34.777 20.488C 33.277 22.092 31.178 22.895 28.479 22.895C 26.249 22.895 24.283 22.2201 22.584 20.864C 20.876 19.51 20.027 17.3051 20.027 14.2531C 20.027 11.391 20.796 9.19604 22.332 7.66809C 23.8719 6.14502 25.864 5.37805 28.317 5.37805C 29.775 5.37805 31.087 5.63708 32.254 6.15308ZM 24.5389 12.441C 24.6989 11.366 25.0889 10.514 25.7069 9.88504C 26.3249 9.25604 27.1989 8.94104 28.3189 8.94104C 29.3529 8.94104 30.2169 9.23704 30.9189 9.82904C 31.6129 10.426 32.0049 11.293 32.0839 12.441L 24.5389 12.441Z"/>
</defs>
</svg>
