<svg width="37" height="37" viewBox="0 0 37 37" version="1.1" xmlns="http://www.w3.org/2000/svg" xmlns:xlink="http://www.w3.org/1999/xlink">
<title>Dribbble</title>
<desc>Created using Figma</desc>
<g id="Canvas" transform="translate(-3186 822)">
<g id="Dribbble">
<use xlink:href="#path0_fill" transform="translate(3186 -822)" fill="#FFFFFF"/>
</g>
</g>
<defs>
<path id="path0_fill" fill-rule="evenodd" d="M 35.231 11.199C 34.774 10.112 34.203 9.064 33.541 8.085C 32.887 7.115 32.133 6.201 31.305 5.373C 30.474 4.543 29.562 3.79 28.59 3.135C 27.611 2.471 26.563 1.903 25.476 1.442C 24.367 0.976 23.207 0.614 22.03 0.375C 20.822 0.127 19.58 0 18.338 0C 17.094 0 15.852 0.127 14.644 0.375C 13.466 0.614 12.306 0.976 11.198 1.442C 10.111 1.903 9.063 2.471 8.082 3.135C 7.111 3.79 6.199 4.543 5.369 5.373C 4.541 6.201 3.788 7.115 3.133 8.085C 2.471 9.064 1.899 10.112 1.442 11.199C 0.972 12.307 0.612 13.469 0.37 14.647C 0.125 15.852 0 17.094 0 18.336C 0 19.582 0.125 20.824 0.37 22.031C 0.612 23.209 0.972 24.369 1.442 25.475C 1.899 26.562 2.471 27.614 3.133 28.593C 3.788 29.563 4.541 30.473 5.369 31.305C 6.199 32.133 7.111 32.884 8.082 33.541C 9.063 34.203 10.111 34.772 11.198 35.232C 12.306 35.702 13.466 36.06 14.644 36.299C 15.852 36.549 17.094 36.674 18.338 36.674C 19.58 36.674 20.822 36.549 22.03 36.299C 23.207 36.06 24.367 35.702 25.476 35.232C 26.563 34.772 27.611 34.203 28.59 33.541C 29.562 32.884 30.474 32.133 31.305 31.305C 32.133 30.473 32.887 29.563 33.541 28.593C 34.203 27.614 34.774 26.562 35.231 25.475C 35.699 24.369 36.062 23.209 36.303 22.031C 36.549 20.824 36.674 19.582 36.674 18.336C 36.674 17.094 36.549 15.852 36.303 14.647C 36.062 13.469 35.699 12.307 35.231 11.199ZM 18.338 2.677C 22.301 2.677 25.922 4.157 28.68 6.587C 28.641 6.645 26.412 10.041 20.499 12.255C 17.822 7.337 14.881 3.43 14.646 3.12C 15.83 2.833 17.066 2.677 18.338 2.677ZM 14.586 3.13196C 14.586 3.13496 14.583 3.13696 14.583 3.13696C 14.583 3.13696 14.564 3.14096 14.536 3.14496C 14.553 3.14096 14.568 3.13896 14.586 3.13196ZM 11.655 4.17603C 11.864 4.45403 14.76 8.38103 17.471 13.198C 9.95099 15.196 3.42399 15.117 3.01199 15.11C 4.02799 10.259 7.28599 6.23703 11.655 4.17603ZM 6.68899 28.802C 4.19399 26.027 2.67599 22.359 2.67599 18.336C 2.67599 18.17 2.68399 18.006 2.68899 17.842C 2.96699 17.849 10.704 18.023 18.767 15.61C 19.216 16.488 19.645 17.383 20.037 18.273C 19.83 18.329 19.625 18.392 19.42 18.461C 10.969 21.191 6.68199 28.793 6.68199 28.793C 6.68199 28.793 6.68899 28.8 6.68899 28.802ZM 18.338 33.9979C 14.639 33.9979 11.242 32.7129 8.561 30.5679C 8.505 30.5239 8.439 30.4729 8.36 30.4079C 8.439 30.4729 8.505 30.5239 8.561 30.5679C 8.652 30.6379 8.711 30.6819 8.711 30.6819C 8.711 30.6819 11.713 24.1359 21.001 20.8989C 21.036 20.8869 21.072 20.8779 21.107 20.8669C 23.31 26.5919 24.219 31.3869 24.451 32.7559C 22.573 33.5539 20.505 33.9979 18.338 33.9979ZM 27.089 31.3249C 26.929 30.3799 26.094 25.7829 24.039 20.1399C 29.096 19.3319 33.476 20.7179 33.8 20.8239C 33.103 25.1879 30.604 28.9509 27.089 31.3249ZM 23.086 17.667C 22.974 17.4 22.864 17.13 22.748 16.861C 22.422 16.093 22.071 15.334 21.706 14.588C 27.891 12.063 30.401 8.43499 30.431 8.39099C 32.626 11.059 33.957 14.465 33.994 18.181C 33.767 18.131 28.467 16.99 23.086 17.667Z"/>
</defs>
</svg>
