<svg width="38" height="32" viewBox="0 0 38 32" version="1.1" xmlns="http://www.w3.org/2000/svg" xmlns:xlink="http://www.w3.org/1999/xlink">
<title>Twitter</title>
<desc>Created using Figma</desc>
<g id="Canvas" transform="translate(-3186 902)">
<g id="Twitter">
<use xlink:href="#path0_fill" transform="translate(3186 -902)" fill="#828282"/>
</g>
</g>
<defs>
<path id="path0_fill" fill-rule="evenodd" d="M 36.42 0.578C 34.934 1.479 33.292 2.135 31.537 2.487C 30.139 0.956 28.141 0 25.929 0C 21.689 0 18.248 3.528 18.248 7.879C 18.248 8.497 18.314 9.097 18.446 9.674C 12.06 9.345 6.399 6.211 2.607 1.439C 1.945 2.607 1.567 3.961 1.567 5.404C 1.567 8.136 2.923 10.549 4.986 11.962C 3.728 11.924 2.541 11.565 1.503 10.979L 1.503 11.076C 1.503 14.895 4.152 18.08 7.67 18.802C 7.026 18.986 6.346 19.079 5.645 19.079C 5.15 19.079 4.667 19.032 4.199 18.939C 5.177 22.068 8.013 24.347 11.376 24.408C 8.747 26.523 5.432 27.783 1.833 27.783C 1.213 27.783 0.6 27.747 0 27.675C 3.4 29.907 7.441 31.212 11.779 31.212C 25.914 31.212 33.641 19.207 33.641 8.795C 33.641 8.452 33.635 8.109 33.622 7.773C 35.123 6.662 36.427 5.275 37.453 3.695C 36.077 4.322 34.595 4.746 33.041 4.935C 34.628 3.961 35.846 2.417 36.42 0.578Z"/>
</defs>
</svg>
